HIERARCHY
ROOT Hips
{
	OFFSET 0.00 0.00 0.00
	CHANNELS 6 Xposition Yposition Zposition Zrotation Yrotation Xrotation
	JOINT Spine
	{
		OFFSET	-0.0066	10.8226	-0.4307
		CHANNELS 3 Zrotation Yrotation Xrotation
		JOINT Spine1
		{
			OFFSET	0.0000	12.6263	-0.2112
			CHANNELS 3 Zrotation Yrotation Xrotation
			JOINT Spine2
			{
				OFFSET	0.0000	14.4301	0.0000
				CHANNELS 3 Zrotation Yrotation Xrotation
				JOINT Neck
				{
					OFFSET	0.0000	16.2338	0.0000
					CHANNELS 3 Zrotation Yrotation Xrotation
					JOINT Head
					{
						OFFSET	0.0000	6.7614	0.0000
						CHANNELS 3 Zrotation Yrotation Xrotation
						End Site
						{
							OFFSET 0.0000 23.0037 2.4456
						}
					}
				}
				JOINT LeftShoulder
				{
					OFFSET	10.9527	13.3171	-1.4436
					CHANNELS 3 Zrotation Yrotation Xrotation
					JOINT LeftArm
					{
						OFFSET	12.5621	-10.8187	0.1359
						CHANNELS 3 Zrotation Yrotation Xrotation
						JOINT LeftForeArm
						{
							OFFSET	18.8844	-21.6036	-1.0453
							CHANNELS 3 Zrotation Yrotation Xrotation
							JOINT LeftHand
							{
								OFFSET	13.3138	-14.1460	5.6551
								CHANNELS 3 Zrotation Yrotation Xrotation
								JOINT LeftHandThumb1
								{
									OFFSET	-0.2234	-4.5184	5.7249
									CHANNELS 3 Zrotation Yrotation Xrotation
									JOINT LeftHandThumb2
									{
										OFFSET	-0.1787	-3.6147	4.5798
										CHANNELS 3 Zrotation Yrotation Xrotation
										JOINT LeftHandThumb3
										{
											OFFSET	0.3288	-5.9239	3.0121
											CHANNELS 3 Zrotation Yrotation Xrotation
											End Site
											{
												OFFSET 0.7426 -5.8978 -0.2421
											}
										}
									}
								}
								JOINT LeftHandIndex1
								{
									OFFSET	9.9406	-11.6381	6.4224
									CHANNELS 3 Zrotation Yrotation Xrotation
									JOINT LeftHandIndex2
									{
										OFFSET	3.7566	-3.9716	0.6536
										CHANNELS 3 Zrotation Yrotation Xrotation
										JOINT LeftHandIndex3
										{
											OFFSET	0.1239	-4.1016	0.5838
											CHANNELS 3 Zrotation Yrotation Xrotation
											End Site
											{
												OFFSET -0.5425 -5.8416 0.4926
											}
										}
									}
								}
								JOINT LeftHandMiddle1
								{
									OFFSET	9.7285	-13.5636	1.1502
									CHANNELS 3 Zrotation Yrotation Xrotation
									JOINT LeftHandMiddle2
									{
										OFFSET	3.6112	-4.6700	-0.0223
										CHANNELS 3 Zrotation Yrotation Xrotation
										JOINT LeftHandMiddle3
										{
											OFFSET	-0.9717	-4.4064	0.5814
											CHANNELS 3 Zrotation Yrotation Xrotation
											End Site
											{
												OFFSET -0.5473 -6.5481 0.5540
											}
										}
									}
								}
								JOINT LeftHandRing1
								{
									OFFSET	7.3735	-14.4731	-3.1009
									CHANNELS 3 Zrotation Yrotation Xrotation
									JOINT LeftHandRing2
									{
										OFFSET	3.1552	-4.3381	-0.6877
										CHANNELS 3 Zrotation Yrotation Xrotation
										JOINT LeftHandRing3
										{
											OFFSET	-0.6730	-3.8541	0.3914
											CHANNELS 3 Zrotation Yrotation Xrotation
											End Site
											{
												OFFSET -1.3498 -5.2602 0.6271
											}
										}
									}
								}
								JOINT LeftHandPinky1
								{
									OFFSET	4.8259	-14.8922	-6.2759
									CHANNELS 3 Zrotation Yrotation Xrotation
									JOINT LeftHandPinky2
									{
										OFFSET	1.6777	-3.4757	-0.9769
										CHANNELS 3 Zrotation Yrotation Xrotation
										JOINT LeftHandPinky3
										{
											OFFSET	-0.4572	-2.7695	-0.0728
											CHANNELS 3 Zrotation Yrotation Xrotation
											End Site
											{
												OFFSET -1.7306 -3.7265 0.8577
											}
										}
									}
								}
							}
						}
					}
				}
				JOINT RightShoulder
				{
					OFFSET	-10.9527	13.3171	-1.4436
					CHANNELS 3 Zrotation Yrotation Xrotation
					JOINT RightArm
					{
						OFFSET	-12.5621	-10.8187	0.1359
						CHANNELS 3 Zrotation Yrotation Xrotation
						JOINT RightForeArm
						{
							OFFSET	-12.9927	-15.1138	-1.1998
							CHANNELS 3 Zrotation Yrotation Xrotation
							JOINT RightHand
							{
								OFFSET	-19.2055	-20.6359	5.8096
								CHANNELS 3 Zrotation Yrotation Xrotation
								JOINT RightHandIndex1
								{
									OFFSET	-11.7773	-11.2003	3.5246
									CHANNELS 3 Zrotation Yrotation Xrotation
									JOINT RightHandIndex2
									{
										OFFSET	-1.8031	-2.3101	0.8667
										CHANNELS 3 Zrotation Yrotation Xrotation
										JOINT RightHandIndex3
										{
											OFFSET	-0.9561	-2.4372	0.8479
											CHANNELS 3 Zrotation Yrotation Xrotation
											End Site
											{
												OFFSET -0.3592 -3.3007 1.2418
											}
										}
									}
								}
								JOINT RightHandMiddle1
								{
									OFFSET	-11.1069	-12.6853	0.1207
									CHANNELS 3 Zrotation Yrotation Xrotation
									JOINT RightHandMiddle2
									{
										OFFSET	-1.4413	-2.9544	0.4089
										CHANNELS 3 Zrotation Yrotation Xrotation
										JOINT RightHandMiddle3
										{
											OFFSET	-0.5774	-2.5977	0.3048
											CHANNELS 3 Zrotation Yrotation Xrotation
											End Site
											{
												OFFSET -0.3601 -3.5348 0.4882
											}
										}
									}
								}
								JOINT RightHandRing1
								{
									OFFSET	-9.8468	-13.0073	-3.1392
									CHANNELS 3 Zrotation Yrotation Xrotation
									JOINT RightHandRing2
									{
										OFFSET	-0.6811	-2.8000	-0.1504
										CHANNELS 3 Zrotation Yrotation Xrotation
										JOINT RightHandRing3
										{
											OFFSET	-0.4028	-2.2868	-0.2694
											CHANNELS 3 Zrotation Yrotation Xrotation
											End Site
											{
												OFFSET 0.1853 -3.2500 0.2083
											}
										}
									}
								}
								JOINT RightHandPinky1
								{
									OFFSET	-7.8050	-12.5466	-5.9736
									CHANNELS 3 Zrotation Yrotation Xrotation
									JOINT RightHandPinky2
									{
										OFFSET	0.0105	-2.2470	-0.3620
										CHANNELS 3 Zrotation Yrotation Xrotation
										JOINT RightHandPinky3
										{
											OFFSET	0.2970	-1.8184	-0.0591
											CHANNELS 3 Zrotation Yrotation Xrotation
											End Site
											{
												OFFSET -0.0337 -2.1669 -0.2214
											}
										}
									}
								}
								JOINT RightHandThumb1
								{
									OFFSET	-1.4515	-3.9395	1.6913
									CHANNELS 3 Zrotation Yrotation Xrotation
									JOINT RightHandThumb2
									{
										OFFSET	-1.1612	-3.1516	3.3390
										CHANNELS 3 Zrotation Yrotation Xrotation
										JOINT RightHandThumb3
										{
											OFFSET	-0.2119	-3.9644	3.2468
											CHANNELS 3 Zrotation Yrotation Xrotation
											End Site
											{
												OFFSET -0.4081 -3.7882 1.9049
											}
										}
									}
								}
							}
						}
					}
				}
			}
		}
	}
	JOINT LeftUpLeg
	{
		OFFSET	13.2805	-6.0125	-0.5314
		CHANNELS 3 Zrotation Yrotation Xrotation
		JOINT LeftLeg
		{
			OFFSET	0.4217	-52.0404	1.5006
			CHANNELS 3 Zrotation Yrotation Xrotation
			JOINT LeftFoot
			{
				OFFSET	0.2212	-50.8660	-3.6051
				CHANNELS 3 Zrotation Yrotation Xrotation
				JOINT LeftToeBase
				{
					OFFSET	2.8257	-10.2731	19.2966
					CHANNELS 3 Zrotation Yrotation Xrotation
					End Site
					{
						OFFSET 0.8536 0.3355 9.0832
					}
				}
			}
		}
	}
	JOINT RightUpLeg
	{
		OFFSET	-13.2937	-6.0125	-0.5314
		CHANNELS 3 Zrotation Yrotation Xrotation
		JOINT RightLeg
		{
			OFFSET	-0.4217	-52.0404	1.5006
			CHANNELS 3 Zrotation Yrotation Xrotation
			JOINT RightFoot
			{
				OFFSET	-0.2212	-50.8660	-3.6051
				CHANNELS 3 Zrotation Yrotation Xrotation
				JOINT RightToeBase
				{
					OFFSET	-2.8257	-10.2731	19.2966
					CHANNELS 3 Zrotation Yrotation Xrotation
					End Site
					{
						OFFSET -0.8536 0.3355 9.0832
					}
				}
			}
		}
	}
}
MOTION
Frames: 4
Frame Time: 0.0333333
0.1888 106.7615 0.4377 1.3649 -3.5434 -0.4358 -0.1814 0.6780 2.0819 -0.3922 1.3687 3.1300 -0.3793 1.3752 3.1292 -1.8934 -2.3070 -4.1282 7.1007 -12.9912 -16.3454 14.6142 -7.3435 -0.6069 -41.6864 -15.3473 33.0359 46.2991 -31.6427 -83.0299 19.4619 -18.8718 10.4592 4.6142 13.3315 12.6035 -6.9784 -2.6359 -7.4880 -5.1062 -0.8788 -17.4103 -38.3891 -16.3037 -9.6347 -4.6498 -6.0033 -11.1556 -22.7030 -4.3010 -9.9075 -42.6128 -18.4286 -11.6374 6.7653 1.1633 -5.8118 -37.8482 -5.7968 -9.4167 -44.0005 -21.7648 -15.8162 7.1234 -0.2987 -1.1458 -30.0339 -3.8060 -11.1877 -35.3302 -20.0912 -19.3136 -2.6742 -2.2593 -7.1117 -12.3850 -1.1798 0.1803 -7.3477 1.7254 0.4480 37.0831 21.1426 29.2198 -46.7430 42.5574 -98.7992 -21.7677 21.4749 2.4859 44.8933 2.6474 4.6407 16.3349 7.4274 -1.2190 21.4980 7.6657 1.2291 24.5741 5.1429 -4.1480 25.3232 7.6419 -6.4676 31.6287 6.4791 -4.5124 19.7223 9.2271 -12.8148 21.7177 2.4476 -10.5759 16.1584 -0.7159 1.4325 13.4001 10.1999 -18.7611 34.7499 -1.5350 -8.2214 40.7314 1.3774 -14.3582 3.9725 -15.4763 11.5088 -8.1660 -7.6905 3.1030 0.7445 0.6181 -8.7754 -4.5661 3.8015 -21.7724 5.2403 0.0221 54.8089 2.7894 0.5037 -30.9475 0.0000 -0.0000 -5.5373 1.7103 -7.6623 -20.0267 -11.5209 -2.4981 56.3798 4.5249 -2.1072 -31.6790 0.0000 0.0000 -8.0292 
0.1804 108.1454 0.4277 1.0032 -3.3186 0.0664 -0.1198 0.6462 1.8657 -0.2367 1.2972 2.7495 -0.2250 1.3027 2.7486 -1.6754 -2.2889 -3.9762 6.7385 -12.6918 -16.7180 16.1137 -8.2968 -0.9638 -43.7376 -14.9567 33.6918 47.0209 -31.5596 -84.1117 21.4572 -18.3822 9.5812 5.0385 13.4207 12.7321 -6.9806 -2.6350 -7.4825 -5.2145 -0.8185 -17.1555 -38.4540 -16.4327 -9.7634 -4.4099 -5.9181 -11.1177 -22.6074 -4.2783 -9.8906 -42.7939 -18.8277 -12.0906 6.6258 1.1389 -5.8534 -37.7512 -5.7745 -9.3995 -44.3684 -22.0311 -16.0058 7.0584 -0.3024 -1.1697 -29.8657 -3.7687 -11.1353 -35.9759 -20.3532 -19.4064 -3.2994 -2.2751 -7.3702 -12.2008 -1.1802 0.2671 -7.3306 2.7199 0.4489 36.4562 22.1415 30.3128 -47.9853 42.3986 -100.6379 -21.9990 21.2767 -0.2558 44.5949 2.6749 4.5003 16.1367 7.3506 -1.2352 21.3308 7.6066 1.2140 23.9979 5.0933 -4.2837 24.9257 7.5325 -6.4432 31.6414 6.4842 -4.5133 19.4721 9.1758 -12.8198 21.6005 2.4335 -10.5453 16.0747 -0.7169 1.4582 13.3057 10.1791 -18.8005 34.8163 -1.5313 -8.2455 40.6784 1.3692 -14.3414 3.5999 -15.5463 11.6862 -8.1660 -7.6905 3.1030 0.7289 0.6301 -8.8690 -4.5073 3.5581 -21.6773 5.6839 -0.2118 53.0057 2.6566 0.3856 -28.3287 0.0000 0.0000 -7.3580 1.9711 -8.0377 -19.8216 -11.4155 -3.0672 54.4143 4.2901 -1.7114 -28.7812 0.0000 -0.0000 -10.0334 
0.2717 112.2347 0.8972 0.3478 -3.4887 0.4771 0.1279 0.6959 1.4690 0.0977 1.4021 2.1950 0.1083 1.4091 2.1933 -1.4297 -2.2866 -4.1275 6.5492 -12.5781 -15.6548 16.7716 -8.5774 -1.1027 -44.1231 -15.4745 35.2971 49.3929 -31.2017 -87.6794 22.2575 -18.6391 9.6924 5.4014 13.5021 12.8207 -6.8643 -2.6885 -7.7911 -5.2905 -0.7758 -16.9758 -38.3435 -16.5985 -10.0061 -4.0694 -5.7973 -11.0634 -22.4183 -4.2333 -9.8572 -42.6511 -19.1130 -12.5474 6.6502 1.1432 -5.8461 -37.6345 -5.7479 -9.3788 -44.2659 -22.1007 -16.1561 7.0713 -0.3016 -1.1649 -29.7347 -3.7397 -11.0943 -35.9425 -20.3439 -19.4098 -3.6777 -2.2860 -7.5265 -12.1000 -1.1806 0.3146 -5.5174 3.8732 0.5313 32.8608 23.2756 30.9545 -51.6884 41.7378 -106.1598 -22.2125 21.1752 -1.8074 44.2640 2.7621 4.2686 15.9098 7.2626 -1.2535 21.2012 7.5607 1.2024 23.6069 5.1504 -4.5652 24.4312 7.3966 -6.4117 31.6608 6.4926 -4.5146 19.1306 9.0901 -12.7617 21.2742 2.3946 -10.4599 16.0300 -0.7181 1.4719 13.1531 10.1461 -18.9102 34.7007 -1.5378 -8.2035 40.6233 1.3607 -14.3240 3.1763 -15.6271 12.0437 -8.1660 -7.6905 3.1030 0.7162 0.6399 -8.9455 -4.3086 4.1750 -19.9071 5.6342 -1.2975 47.4283 1.8285 0.0559 -19.6038 0.0000 0.0000 -13.4037 2.0433 -9.0623 -17.4735 -11.2011 -4.1076 47.6299 5.7766 1.2719 -19.3309 0.0000 -0.0000 -13.1038 
0.4518 117.7496 1.5377 -0.2618 -3.9260 1.0148 0.4340 0.7914 0.9769 0.4536 1.6045 1.5231 0.4625 1.6141 1.5197 -1.2525 -2.3090 -4.7417 6.5543 -12.7036 -13.6114 16.2404 -8.1058 -0.9434 -42.2088 -16.7736 37.0040 52.7907 -30.4532 -92.8380 21.7545 -19.3460 10.9346 5.4862 13.5239 12.8302 -6.7703 -2.7318 -8.0403 -5.3577 -0.7381 -16.8163 -38.1452 -16.7284 -10.2412 -3.8715 -5.7273 -11.0315 -22.2625 -4.1964 -9.8295 -42.3172 -19.2337 -12.8734 6.7146 1.1544 -5.8269 -37.5375 -5.7258 -9.3615 -43.9103 -22.0131 -16.2119 7.0969 -0.3002 -1.1555 -29.6716 -3.7257 -11.0746 -35.3568 -20.0806 -19.2765 -3.6035 -2.2837 -7.4958 -12.1090 -1.1805 0.3104 -4.0252 4.1554 0.6080 28.8025 25.5881 30.6893 -55.8702 40.6261 -112.5037 -21.8062 22.1444 -1.1385 44.1983 2.9666 3.9708 15.6746 7.1713 -1.2722 21.0789 7.5174 1.1916 23.8347 5.4048 -5.0082 24.0530 7.2927 -6.3869 31.6928 6.5051 -4.5169 19.0531 9.0793 -12.7838 20.9617 2.3577 -10.3778 16.0851 -0.7162 1.4549 13.0219 10.1193 -19.1307 34.7149 -1.5370 -8.2086 40.5881 1.3553 -14.3129 2.8308 -15.6954 12.5556 -8.1660 -7.6904 3.1030 0.6877 0.6616 -9.1149 -3.8786 5.7727 -17.4036 4.6991 -2.9066 39.0889 -0.3708 -0.2655 -5.3067 -0.8253 -0.2194 -17.0215 2.0415 -10.8984 -13.5662 -8.2687 -3.3928 36.7556 5.6731 1.7367 -6.6879 -0.0889 -0.0203 -17.4923 
